<?xml version="1.0" standalone="no"?><!DOCTYPE svg PUBLIC "-//W3C//DTD SVG 1.1//EN" "http://www.w3.org/Graphics/SVG/1.1/DTD/svg11.dtd"><svg t="1711245544923" class="icon" viewBox="0 0 1024 1024" version="1.1" xmlns="http://www.w3.org/2000/svg" p-id="9867" xmlns:xlink="http://www.w3.org/1999/xlink" width="200" height="200"><path d="M355.591229 243.892753c-12.389168 0-22.25077-9.903557-22.25077-22.271236 0-12.369725 9.861602-22.38073 22.25077-22.38073s22.424732 10.011005 22.424732 22.38073C378.015961 233.989195 367.981421 243.892753 355.591229 243.892753zM780.007475 467.269239c-24.607444 0-44.675502 20.026102-44.675502 44.763506l0 89.329515c0 24.626887 20.068058 44.651966 44.675502 44.651966 24.693402 0 44.76146-20.024056 44.76146-44.651966l0-89.329515C824.768935 487.295342 804.700877 467.269239 780.007475 467.269239zM243.903497 467.269239c-24.605398 0-44.675502 20.026102-44.675502 44.763506l0 89.329515c0 24.626887 20.070104 44.651966 44.675502 44.651966 24.781406 0 44.675502-20.024056 44.675502-44.651966l0-89.329515C288.578999 487.295342 268.68388 467.269239 243.903497 467.269239zM333.340459 690.689728l44.675502 0 0 89.395006c0 24.6494 19.9821 44.673455 44.587498 44.673455 24.693402 0 44.675502-20.024056 44.675502-44.673455l0-89.395006L556.630988 690.689728l0 89.395006c0 24.6494 19.980054 44.673455 44.76146 44.673455 24.607444 0 44.675502-20.024056 44.675502-44.673455l0-89.395006 44.587498 0L690.655448 467.269239 333.340459 467.269239 333.340459 690.689728zM958.70846 243.892753l0 536.193005c0 98.642624-79.927377 178.63447-178.700985 178.63447L243.903497 958.720228c-98.599645 0-178.61298-79.991846-178.61298-178.63447L65.290517 243.892753c0-98.642624 80.013335-178.61298 178.61298-178.61298l536.105001 0C878.781082 65.279772 958.70846 145.249105 958.70846 243.892753zM869.44546 288.656259c0-74.101695-60.119239-134.069485-134.113487-134.069485L288.578999 154.586774c-73.994248 0-134.027529 59.96779-134.027529 134.069485l0 446.665992c0 74.126254 60.033281 134.090974 134.027529 134.090974l446.752973 0c73.994248 0 134.113487-59.965743 134.113487-134.090974L869.44546 288.656259zM690.656471 221.621517c0-12.369725-9.94756-22.38073-22.336728-22.38073-12.30321 0-22.25077 10.011005-22.25077 22.38073 0 12.367679 9.94756 22.271236 22.25077 22.271236C680.708911 243.892753 690.656471 233.989195 690.656471 221.621517zM646.06795 243.892753l22.25077 0 22.336728 0L646.06795 333.309248l-1.482771 0c41.881876 38.981826 46.070268 89.327468 46.070268 89.327468L333.340459 422.636716c0 0 6.108115-50.345642 48.25298-89.327468l-3.577478 0-44.675502-89.417519 22.25077 0 22.424732 0 33.855062 67.930135c24.869411-13.743002 57.153698-23.166629 100.084463-23.166629 43.190685 0 75.738985 8.834202 100.69333 21.988804L646.06795 243.892753zM467.279984 355.580484c0-12.258185-10.035564-22.271236-22.25077-22.271236-12.389168 0-22.424732 10.013051-22.424732 22.271236 0 12.391215 10.035564 22.382776 22.424732 22.382776C457.24442 377.963261 467.279984 367.972722 467.279984 355.580484zM601.392448 355.580484c0-12.258185-10.035564-22.271236-22.424732-22.271236-12.30321 0-22.336728 10.013051-22.336728 22.271236 0 12.391215 10.033517 22.382776 22.336728 22.382776C591.357907 377.963261 601.392448 367.972722 601.392448 355.580484z" p-id="9868"></path></svg>