<?xml version="1.0" standalone="no"?><!DOCTYPE svg PUBLIC "-//W3C//DTD SVG 1.1//EN" "http://www.w3.org/Graphics/SVG/1.1/DTD/svg11.dtd"><svg t="1711249069207" class="icon" viewBox="0 0 1024 1024" version="1.1" xmlns="http://www.w3.org/2000/svg" p-id="43800" xmlns:xlink="http://www.w3.org/1999/xlink" width="200" height="200"><path d="M512 64C264.576 64 64 264.576 64 512s200.576 448 448 448 448-200.576 448-448S759.424 64 512 64z m148.64 645.984l-20.416 20.384c-5.408 5.44-9.216 12.096-11.136 19.328-2.752 10.24-4.928 20.576-8.64 30.496l-31.392 84.64c-24.864 5.408-50.592 8.448-77.056 8.448v-49.44c3.04-22.816-13.792-65.504-40.864-92.576a57.824 57.824 0 0 1-16.96-40.896v-57.824a57.6 57.6 0 0 0-29.728-50.528 2980.32 2980.32 0 0 0-88.16-47.168 260.416 260.416 0 0 1-57.184-39.296l-1.44-1.28a207.36 207.36 0 0 1-32.64-37.472c-16.928-24.864-44.544-65.792-62.464-92.384a363.264 363.264 0 0 1 186.432-184.064l43.36 21.696a28.896 28.896 0 0 0 41.856-25.856v-20.416c14.4-2.336 29.12-3.808 44.032-4.352l51.136 51.104a28.896 28.896 0 0 1 0 40.896l-8.48 8.448-18.656 18.688a14.464 14.464 0 0 0 0 20.416l8.448 8.48a14.464 14.464 0 0 1 0 20.416l-14.432 14.464a14.464 14.464 0 0 1-10.24 4.224h-16.224a14.432 14.432 0 0 0-10.08 4.096l-17.92 17.44a14.464 14.464 0 0 0-2.88 16.832l28.16 56.32c4.8 9.6-2.176 20.928-12.896 20.928H464a14.432 14.432 0 0 1-9.472-3.52l-16.768-14.592a28.928 28.928 0 0 0-28.096-5.6l-56.32 18.784a21.6 21.6 0 0 0-2.816 39.808l20.032 9.984a122.336 122.336 0 0 0 54.72 12.928c19.04 0 40.832 49.312 57.824 57.824h120.576c15.36 0 30.048 6.08 40.896 16.928l24.736 24.736c10.336 10.336 16.128 24.32 16.128 38.944 0 22.4-8.928 43.84-24.8 59.584z m156.64-165.024a43.36 43.36 0 0 1-25.536-18.016l-32.48-48.704a43.296 43.296 0 0 1 0-48.096l35.36-53.056c4.192-6.272 9.92-11.36 16.704-14.72l23.456-11.744A358.464 358.464 0 0 1 873.28 512c0 15.68-1.312 31.008-3.264 46.144l-52.736-13.184z" fill="#2f84f7" p-id="43801"></path></svg>