<?xml version="1.0" standalone="no"?><!DOCTYPE svg PUBLIC "-//W3C//DTD SVG 1.1//EN" "http://www.w3.org/Graphics/SVG/1.1/DTD/svg11.dtd"><svg t="1711245459918" class="icon" viewBox="0 0 1024 1024" version="1.1" xmlns="http://www.w3.org/2000/svg" p-id="4448" xmlns:xlink="http://www.w3.org/1999/xlink" width="200" height="200"><path d="M193.352 596.264l18.12-59.264a372.088 372.088 0 0 0 11.832-52.4h0.736c3.688 20.68 7.028 35.856 11.456 52.4l17.008 59.264h52.852L360.8 427.792H305.732l-15.52 66.8c-4.072 19.308-7.772 38.224-10.356 57.552h-0.736c-3.696-19.328-8.5-38.244-13.32-57.2l-18.108-67.168h-44.36l-19.2 69.236c-4.44 16.54-9.6 35.832-13.312 55.132h-0.756c-2.956-19.328-6.652-37.936-10.356-55.508l-14.4-68.9H88l52.5 168.46h52.852v0.052z m384.468-101.656c-4.084 19.308-7.772 38.224-10.356 57.552h-0.756c-3.688-19.328-8.492-38.244-13.3-57.2l-18.128-67.168h-44.352l-19.2 69.236c-4.44 16.54-9.6 35.832-13.3 55.132h-0.752c-2.956-19.328-6.652-37.936-10.34-55.508l-14.428-68.9H375.6l52.48 168.46h52.88l18.104-59.264a369.132 369.132 0 0 0 11.828-52.38h0.74c3.708 20.68 7.028 35.86 11.468 52.4l17.008 59.264h52.876l55.416-168.48h-55.084z m287.6 0c-4.056 19.308-7.78 38.224-10.336 57.552h-0.744c-3.696-19.328-8.524-38.244-13.308-57.2l-18.1-67.168h-44.4l-19.2 69.236c-4.44 16.54-9.6 35.832-13.332 55.132h-0.72c-2.944-19.328-6.664-37.936-10.352-55.508l-14.4-68.9H663.2l52.52 168.46h52.844l18.128-59.264a370.204 370.204 0 0 0 11.832-52.38h0.756c3.664 20.68 6.996 35.86 11.436 52.4l16.996 59.264h52.848l55.46-168.46h-55.072zM877.684 364a394.5 394.5 0 0 0-71.488-114.836 537.664 537.664 0 0 1-115.504 56.756A520.572 520.572 0 0 1 710.588 364h-30.524a496.252 496.252 0 0 0-17.368-49.016A539.792 539.792 0 0 1 526.62 336v28h-29.24v-28a540.176 540.176 0 0 1-136.06-21.016A495.424 495.424 0 0 0 343.952 364h-30.54a521.3 521.3 0 0 1 19.896-58.08 537.828 537.828 0 0 1-115.504-56.756A394.516 394.516 0 0 0 146.316 364H114.8a424.868 424.868 0 0 1 88.308-141.972 0.044 0.044 0 0 0 0-0.028 1.104 1.104 0 0 1 0.192-0.188A422.8 422.8 0 0 1 497.336 88.4l8.228-0.22c2.152-0.108 4.288-0.18 6.436-0.18s4.284 0.076 6.4 0.148l8.264 0.22a422.8 422.8 0 0 1 294.024 133.428c0.044 0.072 0.132 0.1 0.188 0.188A424.976 424.976 0 0 1 909.2 364h-31.532zM238.548 227.7A508.12 508.12 0 0 0 345.2 279.12a539.704 539.704 0 0 1 115.344-158.4 393.6 393.6 0 0 0-221.996 106.98z m258.832-101.044A511.54 511.54 0 0 0 373.528 288a511 511 0 0 0 123.852 18.756V126.656z m29.24 0v180.112A511 511 0 0 0 650.472 288a511.54 511.54 0 0 0-123.852-161.344z m36.86-5.952A540.064 540.064 0 0 1 678.8 279.12a508.46 508.46 0 0 0 106.656-51.42 393.628 393.628 0 0 0-221.976-106.996zM140.064 644a394.524 394.524 0 0 0 69.756 121.64 538.94 538.94 0 0 1 118.588-60.4A532.22 532.22 0 0 1 309.2 644h30.204a498.424 498.424 0 0 0 16.708 51.916 539.136 539.136 0 0 1 141.252-22.532V644h29.24v29.384a538.444 538.444 0 0 1 141.236 22.544A498.8 498.8 0 0 0 684.576 644h30.224a531.068 531.068 0 0 1-19.2 61.244 539.016 539.016 0 0 1 118.588 60.4A394.304 394.304 0 0 0 883.94 644h30.8a424.248 424.248 0 0 1-85.66 149.04 2.148 2.148 0 0 1-0.204 0.4c-0.172 0.264-0.48 0.34-0.672 0.588a423.024 423.024 0 0 1-301.552 141.6l-8.232 0.22c-2.132 0.072-4.268 0.144-6.4 0.144s-4.284-0.072-6.432-0.132l-8.232-0.22A423.048 423.048 0 0 1 196 794.324c-0.276-0.336-0.656-0.508-0.92-0.876-0.1-0.132-0.1-0.28-0.192-0.4A424.252 424.252 0 0 1 109.248 644h30.8z m654.248 143.544a509.728 509.728 0 0 0-109.912-55.284 539.2 539.2 0 0 1-120.928 171.032 393.92 393.92 0 0 0 230.84-115.748z m-267.692 109.8a511.2 511.2 0 0 0 129.892-174.248 509.676 509.676 0 0 0-129.892-20.472v194.72z m-29.24 0v-194.72a509.644 509.644 0 0 0-129.892 20.484 511.3 511.3 0 0 0 129.892 174.236z m-36.86 5.948a539.464 539.464 0 0 1-120.92-171.032 509.34 509.34 0 0 0-109.904 55.284 393.92 393.92 0 0 0 230.824 115.748z" fill="#2f84f7" p-id="4449"></path></svg>
